<?xml version="1.0" encoding="UTF-8" standalone="no"?>
<!-- Created with Inkscape (http://www.inkscape.org/) -->

<svg
   width="3.5832553mm"
   height="3.779232mm"
   viewBox="0 0 3.5832553 3.779232"
   version="1.1"
   id="svg164148"
   inkscape:version="1.1.1 (26b7af14f2, 2022-01-19)"
   sodipodi:docname="bell-icon-purple.svg"
   xmlns:inkscape="http://www.inkscape.org/namespaces/inkscape"
   xmlns:sodipodi="http://sodipodi.sourceforge.net/DTD/sodipodi-0.dtd"
   xmlns="http://www.w3.org/2000/svg"
   xmlns:svg="http://www.w3.org/2000/svg">
  <sodipodi:namedview
     id="namedview164150"
     pagecolor="#ffffff"
     bordercolor="#999999"
     borderopacity="1"
     inkscape:pageshadow="0"
     inkscape:pageopacity="0"
     inkscape:pagecheckerboard="0"
     inkscape:document-units="mm"
     showgrid="false"
     fit-margin-top="0"
     fit-margin-left="0"
     fit-margin-right="0"
     fit-margin-bottom="0"
     inkscape:zoom="10.248373"
     inkscape:cx="21.515611"
     inkscape:cy="49.763998"
     inkscape:window-width="2558"
     inkscape:window-height="1378"
     inkscape:window-x="0"
     inkscape:window-y="31"
     inkscape:window-maximized="1"
     inkscape:current-layer="layer1" />
  <defs
     id="defs164145">
    <inkscape:path-effect
       effect="fill_between_many"
       method="originald"
       linkedpaths="#path2,0,1"
       id="path-effect988"
       is_visible="true"
       lpeversion="0"
       join="true"
       close="true"
       autoreverse="true"
       applied="false" />
    <inkscape:path-effect
       effect="fill_between_many"
       method="originald"
       linkedpaths="#path254986,0,1"
       id="path-effect5608"
       is_visible="true"
       lpeversion="0"
       join="true"
       close="true"
       autoreverse="true"
       applied="false" />
  </defs>
  <g
     inkscape:label="Layer 1"
     inkscape:groupmode="layer"
     id="layer1"
     transform="translate(-56.376504,-24.434782)">
    <g
       id="g4280">
      <g
         id="g4269">
        <g
           id="g4259">
          <g
             id="g4250">
            <g
               id="g4242">
              <path
                 inkscape:original-d="M 56.376504,24.434782"
                 inkscape:path-effect="#path-effect988"
                 d="M 56.376504,24.434782"
                 id="path990"
                 style="fill:#10af8f;fill-opacity:1;stroke-width:0.00617525" />
              <path
                 d="m 58.266137,25.171089 c -0.458512,0 -0.83154,0.373016 -0.83154,0.831522 0,0.05886 0.04772,0.106573 0.106572,0.106573 0.05886,0 0.106573,-0.04772 0.106573,-0.106573 0,-0.340979 0.277411,-0.618384 0.618401,-0.618384 0.05886,0 0.106573,-0.04772 0.106573,-0.106572 -6e-6,-0.05886 -0.04772,-0.106566 -0.106579,-0.106566 z"
                 id="path4"
                 style="stroke-width:0.00617525" />
              <path
                 inkscape:original-d="M 53.736448,-12.299951"
                 inkscape:path-effect="#path-effect5608"
                 d="m 59.897059,27.523976 c -0.40162,-0.181372 -0.416898,-0.959886 -0.417194,-0.97953 v -0.52229 c 0,-0.502679 -0.30717,-0.934927 -0.743668,-1.118975 -9.31e-4,-0.25844 -0.211427,-0.468399 -0.47006,-0.468399 -0.258638,0 -0.469121,0.209971 -0.470066,0.468387 -0.43648,0.184047 -0.743655,0.616297 -0.743655,1.118974 v 0.522291 c -2.79e-4,0.01965 -0.01557,0.798157 -0.417206,0.979531 -0.04575,0.02067 -0.0709,0.07047 -0.06032,0.119552 0.01056,0.04909 0.05397,0.08414 0.104182,0.08414 h 1.018176 c 0.02087,0.114823 0.07517,0.221642 0.158204,0.308164 0.11029,0.114909 0.256143,0.178193 0.410666,0.178193 0.154537,0 0.300389,-0.06328 0.410668,-0.178193 0.08305,-0.08652 0.137343,-0.193354 0.158203,-0.308164 h 1.018175 c 0.05021,0 0.09361,-0.03505 0.104189,-0.08414 0.01059,-0.04908 -0.01454,-0.09888 -0.0603,-0.119541 z"
                 id="path5610"
                 style="fill:#e08ef3;fill-opacity:0.92941177" />
              <path
                 d="m 59.897059,27.523976 c -0.40162,-0.181372 -0.416898,-0.959886 -0.417194,-0.97953 v -0.52229 c 0,-0.502679 -0.30717,-0.934927 -0.743668,-1.118975 -9.31e-4,-0.25844 -0.211427,-0.468399 -0.47006,-0.468399 -0.258638,0 -0.469121,0.209971 -0.470066,0.468387 -0.43648,0.184047 -0.743655,0.616297 -0.743655,1.118974 v 0.522291 c -2.79e-4,0.01965 -0.01557,0.798157 -0.417206,0.979531 -0.04575,0.02067 -0.0709,0.07047 -0.06032,0.119552 0.01056,0.04909 0.05397,0.08414 0.104182,0.08414 h 1.018176 c 0.02087,0.114823 0.07517,0.221642 0.158204,0.308164 0.11029,0.114909 0.256143,0.178193 0.410666,0.178193 0.154537,0 0.300389,-0.06328 0.410668,-0.178193 0.08305,-0.08652 0.137343,-0.193354 0.158203,-0.308164 h 1.018175 c 0.05021,0 0.09361,-0.03505 0.104189,-0.08414 0.01059,-0.04908 -0.01454,-0.09888 -0.0603,-0.119541 z m -0.529053,-0.372953 c 0.04222,0.128 0.102003,0.256544 0.186777,0.363512 h -2.577304 c 0.08476,-0.106955 0.144545,-0.235493 0.186765,-0.363512 z m -1.101869,-2.503102 c 0.11699,0 0.215906,0.07861 0.246856,0.185764 -0.07973,-0.01654 -0.162298,-0.02526 -0.246856,-0.02526 -0.08456,0 -0.16712,0.0087 -0.246855,0.02526 0.03096,-0.107147 0.129871,-0.185764 0.246855,-0.185764 z m -1.000582,1.897168 v -0.522952 c 0,-0.551716 0.448855,-1.000569 1.000582,-1.000569 0.551728,0 1.000583,0.448853 1.000583,1.000569 v 0.523822 c 1.42e-4,0.01604 0.0027,0.18451 0.0451,0.391913 h -2.091385 c 0.04249,-0.2076 0.04499,-0.376376 0.04512,-0.392783 z m 1.000582,1.455809 c -0.162662,0 -0.304625,-0.11728 -0.350192,-0.27323 h 0.700372 c -0.04557,0.15595 -0.187505,0.27323 -0.35018,0.27323 z"
                 id="path254986"
                 style="stroke-width:0.00617525" />
              <path
                 d="m 58.266137,25.171089 c -0.458512,0 -0.83154,0.373016 -0.83154,0.831522 0,0.05886 0.04772,0.106573 0.106572,0.106573 0.05886,0 0.106573,-0.04772 0.106573,-0.106573 0,-0.340979 0.277411,-0.618384 0.618401,-0.618384 0.05886,0 0.106573,-0.04772 0.106573,-0.106572 -6e-6,-0.05886 -0.04772,-0.106566 -0.106579,-0.106566 z"
                 id="path254988"
                 style="stroke-width:0.00617525" />
            </g>
          </g>
        </g>
      </g>
    </g>
    <rect
       style="display:inline;opacity:0.933877;fill:#df8ef2;fill-opacity:0.992157;stroke:#000000;stroke-width:0.365;stroke-linejoin:miter;stroke-miterlimit:4;stroke-dasharray:none;paint-order:markers stroke fill"
       id="rect17573"
       width="1.4287502"
       height="2.0982533"
       x="-24.839352"
       y="63.485584"
       ry="0.26458246"
       rx="0"
       transform="rotate(-90)" />
  </g>
</svg>
